<svg width="249" height="248" viewBox="0 0 249 248" fill="none" xmlns="http://www.w3.org/2000/svg">
<path d="M98.294 23.8897C98.484 23.4007 104.265 17.7817 111.14 11.4027C118.015 5.02368 123.959 -0.106325 124.35 0.0016745C125.275 0.258675 147.038 19.8147 149.641 22.7287L151.64 24.9657L146.118 24.2887L140.597 23.6117L132.655 37.1417C128.287 44.5837 124.345 50.3037 123.895 49.8537C123.444 49.4027 119.785 43.4467 115.762 36.6167L108.448 24.1987L103.198 24.4877C100.31 24.6467 98.103 24.3777 98.294 23.8897Z" fill="#60AD56"/>
<path d="M80.668 39.4017C85.342 35.2237 87.391 34.0817 91.065 33.6057C93.581 33.2797 97.44 32.9537 99.64 32.8807L103.64 32.7487L111.485 46.2447L119.329 59.7417L113.127 70.2197C109.716 75.9837 106.411 80.6867 105.783 80.6727C105.154 80.6587 99.69 79.3987 93.64 77.8717L82.64 75.0967L78.743 59.8507L74.846 44.6047L80.668 39.4017Z" fill="#60AD56"/>
<path d="M130.14 59.6957C130.14 59.0357 133.559 52.6907 137.738 45.5967C146.111 31.3827 144.919 32.1837 155.979 33.3397C161.613 33.9287 162.59 34.4147 168.017 39.3257L173.924 44.6707L170.475 58.3567C168.578 65.8837 166.646 72.7527 166.181 73.6207C165.374 75.1267 142.7 81.6647 141.813 80.6477C140.327 78.9417 130.14 60.6587 130.14 59.6957Z" fill="#60AD56"/>
<path d="M36.445 35.7797L43.542 35.4377C47.446 35.2497 55.569 35.0067 61.593 34.8977L72.546 34.6987L68.858 38.4757L65.17 42.2527L69.048 56.9757C72.329 69.4327 72.683 71.6987 71.345 71.6987C70.475 71.6987 63.711 70.0927 56.314 68.1307L42.865 64.5617L39.002 68.3327L35.14 72.1047L35.144 66.6517C35.146 63.6527 35.44 55.4797 35.796 48.4897L36.445 35.7797Z" fill="#60AD56"/>
<path d="M183.64 41.5197L179.64 38.1237L175.64 34.7287L184.14 34.7187C188.815 34.7137 196.999 34.9977 202.326 35.3507L212.012 35.9917L212.538 42.0957C212.828 45.4517 213.305 53.8237 213.599 60.6987L214.134 73.1987L210.355 68.8597L206.577 64.5197L191.358 68.4177C182.988 70.5607 176.127 72.0637 176.112 71.7567C176.096 71.4497 177.784 64.5207 179.862 56.3587L183.64 41.5197Z" fill="#60AD56"/>
<path d="M116.14 83.0317C116.14 82.3287 122.034 71.7467 123.439 69.9267C124.581 68.4487 125.139 69.1167 130.03 77.8237L133.19 83.4487L128.619 84.5997C124.263 85.6967 116.14 84.6757 116.14 83.0317Z" fill="#60AD56"/>
<path d="M34.387 86.2667L39.514 80.4467C45.507 73.6417 44.506 73.7047 63.557 78.9297L75.475 82.1987L78.299 92.6987C79.852 98.4737 81.126 103.938 81.131 104.842C81.137 105.87 77.238 108.794 70.705 112.66L60.27 118.836L46.955 110.947L33.64 103.058L34.014 94.6627L34.387 86.2667Z" fill="#60AD56"/>
<path d="M173.338 81.9217L186.489 78.4457C193.722 76.5337 200.615 74.9087 201.806 74.8337C203.285 74.7417 205.745 76.6577 209.556 80.8687L215.14 87.0397L215.13 95.1187L215.119 103.199L201.767 110.982L188.415 118.765L178.028 112.639C172.314 109.27 167.495 106.373 167.318 106.201C167.141 106.029 168.423 100.496 170.167 93.9047L173.338 81.9217Z" fill="#60AD56"/>
<path d="M87.715 94.9347C86.801 91.2297 85.817 87.4117 85.529 86.4487C84.874 84.2607 84.788 84.2567 94.238 86.8467L102.077 88.9947L99.716 92.9547C98.417 95.1317 95.56 97.9837 93.365 99.2927L89.376 101.671L87.715 94.9347Z" fill="#60AD56"/>
<path d="M147.45 89.0547C147.747 88.7587 151.06 87.6977 154.815 86.6977C162.994 84.5187 163.137 84.4967 163.153 85.4487C163.201 88.2497 159.571 100.698 158.707 100.695C155.185 100.683 145.666 90.8397 147.45 89.0547Z" fill="#60AD56"/>
<path d="M97.924 106.655C102.599 104.084 104.361 102.347 107.122 97.5867C109 94.3487 111.235 91.7037 112.088 91.7107C112.942 91.7167 116.104 92.3777 119.115 93.1797C123.953 94.4667 125.278 94.4587 130.489 93.1077C133.733 92.2677 136.954 91.7967 137.647 92.0627C138.339 92.3287 140.282 94.9507 141.963 97.8897C144.356 102.072 146.337 103.991 151.077 106.716C154.408 108.632 156.967 110.649 156.764 111.199C154.538 117.232 153.914 124.111 155.108 129.449C155.816 132.611 156.574 135.666 156.793 136.236C157.012 136.807 154.455 138.832 151.11 140.736C146.069 143.607 144.437 145.249 141.559 150.342L138.087 156.486L131.178 154.709C124.531 152.999 124.02 153.001 117.681 154.759L111.093 156.585L108.506 152.392C107.084 150.086 105.322 147.245 104.592 146.08C103.863 144.914 100.762 142.548 97.703 140.821C94.643 139.095 92.14 137.188 92.14 136.585C92.14 135.981 92.827 132.835 93.667 129.593C95.037 124.307 95.037 123.091 93.667 117.805C92.827 114.563 92.14 111.443 92.14 110.872C92.14 110.301 94.743 108.404 97.924 106.655Z" fill="#60AD56"/>
<path d="M0 123.723L12.32 110.234C19.096 102.815 24.808 96.7347 25.014 96.7217C25.219 96.7087 25.182 99.1747 24.931 102.201L24.475 107.704L37.764 115.451C45.074 119.713 51.072 123.424 51.093 123.699C51.115 123.974 45.139 127.732 37.812 132.05L24.492 139.901L24.94 145.3C25.186 148.269 25.176 150.699 24.918 150.699C24.66 150.699 18.947 144.629 12.224 137.211L0 123.723Z" fill="#60AD56"/>
<path d="M223.64 108.117L223.942 102.908C224.109 100.043 224.401 97.6987 224.593 97.6987C225.237 97.6987 248.14 123.115 248.14 123.829C248.14 124.217 242.74 130.422 236.14 137.617L224.14 150.699V145.259V139.819L211.14 132.161C203.99 127.949 198.14 124.193 198.14 123.812C198.14 123.432 203.878 119.746 210.89 115.619L223.64 108.117Z" fill="#60AD56"/>
<path d="M72.757 121.488C74.893 120.166 78.215 118.173 80.14 117.058L83.64 115.032L84.918 119.116C86.143 123.032 85.852 128.929 84.31 131.424C83.795 132.257 81.391 131.313 76.226 128.25L68.875 123.891L72.757 121.488Z" fill="#60AD56"/>
<path d="M164.156 130.242C162.801 126.678 162.631 123.663 163.547 119.449C163.996 117.387 164.793 115.699 165.319 115.699C166.498 115.699 179.094 123.005 179.121 123.704C179.131 123.982 175.976 126.113 172.109 128.439L165.079 132.668L164.156 130.242Z" fill="#60AD56"/>
<path d="M33.64 144.537L46.978 136.696L60.315 128.855L69.478 134.304C74.517 137.3 79.304 140.153 80.116 140.642C81.391 141.41 81.207 143.113 78.767 153.118C77.213 159.49 75.504 164.974 74.971 165.304C74.437 165.634 67.524 167.615 59.609 169.707L45.219 173.511L39.805 167.344L34.39 161.177L34.015 152.857L33.64 144.537Z" fill="#60AD56"/>
<path d="M167.344 141.23C167.507 141.105 172.354 138.26 178.115 134.908L188.59 128.814L191.615 130.651C193.279 131.661 199.14 135.139 204.64 138.379L214.64 144.271L214.931 152.542L215.223 160.813L209.265 166.976L203.308 173.14L189.2 169.714C181.441 167.829 174.62 165.996 174.044 165.639C173.074 165.04 166.679 141.741 167.344 141.23Z" fill="#60AD56"/>
<path d="M85.658 162.55C85.4 162.292 86.129 158.62 87.279 154.39C88.429 150.16 89.594 146.699 89.869 146.699C92.028 146.699 98.067 151.518 99.901 154.705L102.153 158.618L97.897 159.729C95.555 160.34 91.95 161.331 89.884 161.93C87.818 162.529 85.916 162.808 85.658 162.55Z" fill="#60AD56"/>
<path d="M147.837 158.708C146.572 157.582 150.941 151.023 154.455 148.774C156.207 147.652 158.068 146.869 158.591 147.034C159.7 147.383 163.704 161.468 162.918 162.254C162.295 162.877 149.011 159.754 147.837 158.708Z" fill="#60AD56"/>
<path d="M116.14 164.727C116.14 164.271 117.828 163.45 119.89 162.904C121.953 162.357 124.171 162.061 124.819 162.246C125.467 162.431 127.625 162.887 129.613 163.26C131.6 163.633 133.095 164.222 132.934 164.568C130.73 169.303 124.776 178.592 124.181 178.224C123.162 177.595 116.14 165.807 116.14 164.727Z" fill="#60AD56"/>
<path d="M82.713 172.85C82.873 172.658 87.872 171.237 93.822 169.691C99.772 168.145 105.161 166.84 105.798 166.79C106.435 166.74 109.738 171.459 113.138 177.276L119.321 187.853L114.847 195.526C112.386 199.746 108.858 205.778 107.006 208.929L103.64 214.66L98.015 214.679C89.202 214.71 87.027 213.907 80.681 208.277L74.744 203.008L78.583 188.104C80.694 179.906 82.553 173.042 82.713 172.85Z" fill="#60AD56"/>
<path d="M129.398 187.933L135.519 177.355C138.886 171.537 142.09 166.762 142.64 166.744C144.016 166.698 165.266 172.492 165.844 173.07C166.101 173.327 168.026 180.046 170.121 188.002L173.932 202.468L168.029 208.308L162.127 214.149L153.549 214.174L144.972 214.199L137.185 201.066L129.398 187.933Z" fill="#60AD56"/>
<path d="M35.794 198.867C35.439 191.9 35.158 183.724 35.171 180.699L35.194 175.199L38.811 179.091L42.427 182.983L56.682 179.341C64.521 177.338 71.398 175.699 71.963 175.699C72.537 175.699 71.252 182.305 69.055 190.653L65.119 205.607L69.38 209.596L73.64 213.585L64.14 213.11C58.915 212.849 50.545 212.387 45.54 212.085L36.44 211.535L35.794 198.867Z" fill="#60AD56"/>
<path d="M179.882 191.412C177.824 183.461 176.14 176.673 176.14 176.328C176.14 175.322 176.899 175.467 192.02 179.37L206.4 183.083L209.857 179.311C211.758 177.236 213.488 175.713 213.7 175.926C214.206 176.432 212.45 210.723 211.889 211.283C211.384 211.788 176.794 213.634 176.31 213.181C176.129 213.011 177.7 211.296 179.802 209.37L183.624 205.867L179.882 191.412Z" fill="#60AD56"/>
<path d="M108.555 223.199L116.47 209.815L124.385 196.431L132.434 210.148L140.483 223.864L145.813 223.532C148.744 223.349 151.142 223.279 151.141 223.378C151.135 224.166 124.756 247.73 124.139 247.499C122.926 247.045 98.14 224.423 98.138 223.768C98.137 223.455 100.481 223.199 103.346 223.199H108.555Z" fill="#60AD56"/>
</svg>
